<svg width="88" height="89" viewBox="0 0 88 89" fill="none" xmlns="http://www.w3.org/2000/svg">
<path d="M85.5711 30.3652L47.2168 18.5814C45.1268 17.9393 42.8718 17.9393 40.7832 18.5814L2.42756 30.3652C-0.809188 31.3593 -0.809188 35.6397 2.42756 36.6338L9.11419 38.6881C7.64706 40.5017 6.74506 42.7141 6.65569 45.1368C5.33156 45.8958 4.39931 47.2653 4.39931 48.9002C4.39931 50.3825 5.18031 51.6296 6.30506 52.4271L2.79469 68.2231C2.48944 69.5967 3.53444 70.9002 4.94106 70.9002H12.6562C14.0642 70.9002 15.1092 69.5967 14.8039 68.2231L11.2936 52.4271C12.4183 51.6296 13.1993 50.3825 13.1993 48.9002C13.1993 47.3093 12.3097 45.9783 11.0461 45.2056C11.1506 43.1403 12.2066 41.3143 13.8909 40.1566L40.7818 48.4189C42.0276 48.8012 44.4173 49.2783 47.2154 48.4189L85.5711 36.6352C88.8092 35.6397 88.8092 31.3607 85.5711 30.3652ZM48.5079 52.6251C44.5851 53.8296 41.2424 53.1641 39.4893 52.6251L19.5491 46.4994L17.5993 62.1002C17.5993 66.9608 29.4188 70.9002 43.9993 70.9002C58.5798 70.9002 70.3993 66.9608 70.3993 62.1002L68.4496 46.4981L48.5079 52.6251Z" fill="black"/>
</svg>
