<svg width="88" height="89" viewBox="0 0 88 89" fill="none" xmlns="http://www.w3.org/2000/svg">
<path d="M59.7713 18H47.96C46.86 18 45.8013 18.4139 44.99 19.159L31.4737 31.5763C31.46 31.5901 31.4463 31.6177 31.4325 31.6315C29.15 33.7839 29.1912 37.2193 31.1438 39.3579C32.89 41.2757 36.5613 41.7862 38.8575 39.7304C38.8713 39.7166 38.8988 39.7166 38.9125 39.7028L49.8988 29.6033C50.7925 28.7893 52.195 28.8445 53.0063 29.7413C53.8313 30.6381 53.7625 32.0316 52.8688 32.8595L49.28 36.157L69.3 52.4651C69.6988 52.7962 70.0563 53.155 70.3863 53.5275V26.8301L62.8787 19.2969C62.0675 18.4691 60.94 18 59.7713 18ZM74.8 26.8577V57.7494C74.8 60.1915 76.7663 62.1645 79.2 62.1645H88V26.8577H74.8ZM81.4 57.7494C80.19 57.7494 79.2 56.756 79.2 55.5419C79.2 54.3277 80.19 53.3343 81.4 53.3343C82.61 53.3343 83.6 54.3277 83.6 55.5419C83.6 56.756 82.61 57.7494 81.4 57.7494ZM0 62.1507H8.8C11.2338 62.1507 13.2 60.1777 13.2 57.7356V26.8577H0V62.1507ZM6.6 53.3343C7.81 53.3343 8.8 54.3277 8.8 55.5419C8.8 56.756 7.81 57.7494 6.6 57.7494C5.39 57.7494 4.4 56.756 4.4 55.5419C4.4 54.3139 5.39 53.3343 6.6 53.3343ZM66.5362 55.9006L46.0075 39.1785L41.8825 42.9727C37.7988 46.7117 31.5425 46.353 27.8988 42.3656C24.2 38.3093 24.4888 32.0316 28.5038 28.334L39.7513 18H28.2288C27.06 18 25.9463 18.4691 25.1213 19.2969L17.6 26.8301V57.7218H20.1163L32.56 69.0216C36.3275 72.0983 41.8687 71.5189 44.935 67.7385L44.9625 67.7109L47.4238 69.8494C49.61 71.643 52.8413 71.2981 54.615 69.1044L58.9325 63.7787L59.675 64.3858C61.5588 65.9173 64.3363 65.6413 65.8625 63.7373L67.1688 62.1231C68.7087 60.2191 68.42 57.4459 66.5362 55.9006Z" fill="black"/>
</svg>
